<?xml version="1.0" encoding="utf-8"?>
<!-- Generator: Adobe Illustrator 19.0.0, SVG Export Plug-In . SVG Version: 6.00 Build 0)  -->
<svg version="1.1" id="Слой_1" xmlns="http://www.w3.org/2000/svg" xmlns:xlink="http://www.w3.org/1999/xlink" x="0px" y="0px"
	 viewBox="0 0 167.6 120.1" style="enable-background:new 0 0 167.6 120.1;" xml:space="preserve">
<style type="text/css">
	.st0{opacity:0.53;}
	.st1{fill:#C2C2C2;}
	.st2{fill:#5D5D5D;}
	.st3{fill:#6C6C6C;}
	.st4{fill:#5F5F5F;}
	.st5{fill:#949494;}
	.st6{fill:#0A0A0A;}
	.st7{fill:none;}
</style>
<g class="st0">
	<g>
		<g>
			<path class="st1" d="M94.1,64.3C90.1,58,83.5,53.3,73,53.2c-8.8-0.1-15.4,2.9-20,7.9l-0.7,6.7h-3.9c-1.4,2.9-2.5,6.1-3.1,9.5
				c6.3,3.6,10.3,9.9,10.3,17.7c0,5.1-1.7,10.2-4.7,14.2c4.8,6.3,12,9.7,20.5,9.7c10.5,0,17.6-4.6,22-11.1
				c-3.4-5.2-5.4-12.2-5.4-20.7C87.9,78.5,89.9,70.4,94.1,64.3z M71.9,106.1c-4.1,0-6.9-3-8.1-7.9C63.1,94.9,63,91.4,63,88
				c0-6.2,0.4-14.4,2.7-18.4c1.7-2.8,4.4-3.9,6.5-3.9c4.4,0,6.7,3.6,7.6,7.5c0.9,3.9,1.1,10.8,1.1,13.6
				C80.9,95.8,79.6,106.1,71.9,106.1z"/>
			<path class="st2" d="M116.6,53.4c-10.4-0.1-17.8,4.1-22.4,10.8c4.1,6.4,5.4,14.4,5.4,20.9c0,7.8-1.8,16.2-6.3,22.7
				c4.8,7.3,12.4,11.3,21.6,11.3c21,0,28.3-18.1,28.3-33.8C143.1,72.5,137.9,53.7,116.6,53.4z M115.5,106.3c-4.1,0-6.9-3-8.1-7.9
				c-0.7-3.3-0.8-6.8-0.8-10.2c0-6.2,0.4-14.4,2.7-18.4c1.7-2.8,4.4-3.9,6.5-3.9c4.4,0,6.7,3.6,7.6,7.5c0.9,3.9,1.1,10.8,1.1,13.6
				C124.5,96,123.2,106.3,115.5,106.3z"/>
			<path class="st3" d="M94.1,64.3c-4.2,6.1-6.2,14.2-6.2,23c0,8.5,2,15.4,5.4,20.7c4.4-6.5,6.3-14.9,6.3-22.7
				C99.5,78.6,98.2,70.6,94.1,64.3z"/>
			<path class="st4" d="M45.2,77.3c-3.8-2.2-8.5-3.4-13.7-3.4c-3.4,0-7.5,0.6-10.3,1.7c-0.6,0.3-1.3,0.6-1.9,1l0.9-8.9h28.1
				c1.2-2.5,2.8-4.8,4.6-6.7l0.7-6.4H6.9L3.4,88.7l15.7,1.9c1.1-1.6,2.6-4,7.7-4c6.5,0,9.6,4.1,9.6,9.8c0,4.9-2.7,9.8-9.3,9.8
				c-3.8,0-6.8-1.7-7.9-5.3c-0.5-1.5-0.5-3-0.5-4.6L0,98.3c1,4.8,1.9,9.2,6,13.4c7.1,7.2,17.6,7.2,21,7.2c5.3,0,15.1-0.5,22-7.5
				c0.7-0.7,1.3-1.4,1.8-2.1c-4.1-5.4-6.5-12.9-6.5-22.2C44.3,83.7,44.6,80.4,45.2,77.3z"/>
			<path class="st5" d="M52.2,67.8l0.7-6.7c-1.8,2-3.4,4.2-4.6,6.7H52.2z"/>
			<path class="st5" d="M45.2,77.3c-0.6,3.1-0.9,6.3-0.9,9.7c0,9.3,2.4,16.8,6.5,22.2c3-4,4.7-9.1,4.7-14.2
				C55.5,87.2,51.5,80.9,45.2,77.3z"/>
		</g>
	</g>
	<g>
		<polygon class="st6" points="1.9,48.3 1.9,37.8 8.1,37.8 8.1,11.7 1.9,11.7 1.9,0.5 35.1,0.5 35.1,11.7 28.9,11.7 28.9,37.8 
			35.1,37.8 35.1,48.3 		"/>
		<path class="st6" d="M65.2,48.3V37.8H70V26.9c0-3.3-2.3-4.8-5.4-4.8c-3.8,0-6.7,2.8-6.7,6.6v9h5v10.4h-26V37.8h4.7V22.1h-4.7V11.7
			h20.5v7.2c0.3-0.3,0.7-0.7,0.9-1c3.8-4.3,8-5.8,13.7-5.8c7.9,0,14.4,3.2,14.4,12v13.8h4.2v10.4H65.2z"/>
		<path class="st6" d="M132,27.1l-14,1.5c-0.2-3.9-1-8-5.7-8c-6,0-6.5,5-6.5,9.9v0v0.1c0,4.8,0.5,9.9,6.5,9.9c3.2,0,6-1.8,6-5.7
			l0.5,0l13.5,0L132,36c-2.3,11.4-12.6,13.2-20,13.2c-11.6,0-23-5.7-23-18.6v0c0-12.9,11.4-18.6,23-18.6
			C112.1,11.9,130.2,10.8,132,27.1z"/>
		<circle class="st6" cx="136.9" cy="42.5" r="5.9"/>
	</g>
	<rect y="0" class="st7" width="167.6" height="120.1"/>
</g>
</svg>
